# xmcd
#
# Track frame offsets: 
#        150
#        16961
#        26258
#        37514
#        47444
#        62399
#        71912
#        84999
#        97524
#        107515
#        118826
#        130610
#        142035
#        152173
#        162159
#        175604
#        185632
#        196083
#        210266
#        221198
#
# Disc length: 3058 seconds
#
# Revision: 1
# Processed by: cddbd v1.5.2PL0 Copyright (c) Steve Scherf et al.
# Submitted via: ExactAudioCopy v1.3
#
DISCID=f60bf014
DTITLE=Various Artist - 120 % Heroes Of Country CD3
DYEAR=2004
DGENRE=Country
TTITLE0=Ferlin Husky - Giddyup Go
TTITLE1=Charlie Rich - Lonely Weekends
TTITLE2=Razzy Bailey - 9,999,999 Tears
TTITLE3=Johnny Cash - Hey Porter
TTITLE4=Kenny Rogers - For The Good Times
TTITLE5=Frankie Laine - Blazing Saddles
TTITLE6=Freddy Fender - Something On Your Mind
TTITLE7=Gene Autry - Take Me Back In Your Arms
TTITLE8=Hank Locklin - We're Gonna Go Fishing
TTITLE9=Jim Reeves - Just Call Me Lonesome
TTITLE10=Barbara Fairchild - You Can't Put The City In A Country Girl
TTITLE11=Donna Fargo - Superman
TTITLE12=Porter Wagoner - The Green Green Grass Of Home
TTITLE13=Don Gibson - Lonesome Number One
TTITLE14=Roy Rogers - Saddle Serenade
TTITLE15=Willie Nelson - Pride Wins Again
TTITLE16=Patsy Cline - Lovesick Blues
TTITLE17=Conway Twitty - You've Never Been This Far Before
TTITLE18=Roger Miller - Husbands And Wives
TTITLE19=Don Gibson - Blue Blue Day
EXTD=
EXTT0=
EXTT1=
EXTT2=
EXTT3=
EXTT4=
EXTT5=
EXTT6=
EXTT7=
EXTT8=
EXTT9=
EXTT10=
EXTT11=
EXTT12=
EXTT13=
EXTT14=
EXTT15=
EXTT16=
EXTT17=
EXTT18=
EXTT19=
PLAYORDER=
